<svg width="63" height="57" viewBox="0 0 63 57" fill="none" xmlns="http://www.w3.org/2000/svg">
<rect width="63" height="57" fill="#1D1C1D"/>
<path d="M40.9167 37.9167H21.0833V22.3334H40.9167M36.6667 12.4167V15.2501H25.3333V12.4167H22.5V15.2501H21.0833C19.5108 15.2501 18.25 16.5109 18.25 18.0834V37.9167C18.25 38.6682 18.5485 39.3889 19.0799 39.9202C19.6112 40.4516 20.3319 40.7501 21.0833 40.7501H40.9167C41.6681 40.7501 42.3888 40.4516 42.9201 39.9202C43.4515 39.3889 43.75 38.6682 43.75 37.9167V18.0834C43.75 17.332 43.4515 16.6113 42.9201 16.0799C42.3888 15.5486 41.6681 15.2501 40.9167 15.2501H39.5V12.4167M38.0833 28.0001H31V35.0834H38.0833V28.0001Z" fill="white"/>
</svg>
