<svg width="38" height="38" viewBox="0 0 38 38" fill="none" xmlns="http://www.w3.org/2000/svg">
<path d="M3 19.3264C3 15.664 3 13.8336 3.832 12.3168C4.6608 10.7984 6.1792 9.8576 9.2144 7.9728L12.4144 5.9872C15.6224 3.9952 17.2272 3 19 3C20.7728 3 22.376 3.9952 25.5856 5.9872L28.7856 7.9728C31.8208 9.8576 33.3392 10.7984 34.1696 12.3168C35 13.8336 35 15.664 35 19.3248V21.76C35 28 35 31.1216 33.1248 33.0608C31.2512 35 28.2336 35 22.2 35H15.8C9.7664 35 6.7488 35 4.8752 33.0608C3 31.1216 3 28.0016 3 21.76V19.3264Z" stroke="white" stroke-width="6"/>
<path d="M19 23.8V28.6" stroke="white" stroke-width="1.5" stroke-linecap="round"/>
</svg>
