<svg width="39" height="39" viewBox="10.7494 4.875 19.1256 29.8755" fill="none" xmlns="http://www.w3.org/2000/svg">
    <path d="M8.125 30.5013V28.8763H10.7494V15.9981C10.7494 13.8748 11.421 12.0077 12.7644 10.3967C14.1099 8.78692 15.8134 7.78375 17.875 7.38725V6.5C17.875 6.04825 18.0326 5.66475 18.3479 5.3495C18.6631 5.03317 19.0461 4.875 19.4967 4.875C19.9463 4.875 20.3304 5.03317 20.6489 5.3495C20.9663 5.66475 21.125 6.04825 21.125 6.5V7.38725C23.1877 7.78375 24.8907 8.78746 26.234 10.3984C27.5773 12.0104 28.249 13.8775 28.249 15.9997V28.8746H30.875V30.4996L8.125 30.5013ZM19.4951 34.7506C18.7715 34.7506 18.154 34.4933 17.6426 33.9788C17.1313 33.4653 16.8756 32.8478 16.8756 32.1263H22.1244C22.1244 32.8521 21.8671 33.4712 21.3525 33.9836C20.8368 34.495 20.2177 34.7506 19.4951 34.7506ZM12.3744 28.8746H26.6256V15.9997C26.6256 14.0248 25.9317 12.3435 24.544 10.9557C23.1573 9.56908 21.476 8.87575 19.5 8.87575C17.524 8.87575 15.8427 9.56908 14.456 10.9557C13.0693 12.3435 12.376 14.0248 12.376 15.9997L12.3744 28.8746Z" fill="white"/>
</svg>