<svg width="15" height="28" viewBox="0 0 15 28" fill="none" xmlns="http://www.w3.org/2000/svg">
<path d="M6.36687 19.1639C6.36687 17.6863 6.60089 16.453 7.06893 15.4641C7.53585 14.4762 8.4975 13.3637 9.95386 12.1266C10.9655 11.239 11.7271 10.3967 12.2385 9.59972C12.7499 8.80163 13.0056 7.90324 13.0056 6.90455C13.0056 5.46691 12.4953 4.26978 11.4747 3.31315C10.4541 2.3576 9.06003 1.87982 7.29239 1.87982C5.8527 1.87982 4.70595 2.20445 3.85214 2.85371C2.99833 3.50297 2.31184 4.31076 1.79266 5.2771L0 4.46175C0.711506 3.08882 1.6637 2.00223 2.85659 1.20199C4.04947 0.400663 5.52807 0 7.29239 0C9.76042 0 11.6626 0.684847 12.9989 2.05454C14.333 3.42424 15 5.0285 15 6.86734C15 8.04938 14.7332 9.12896 14.1996 10.1061C13.667 11.0843 12.8899 12.0139 11.8683 12.8951C10.3352 14.2044 9.36909 15.2721 8.96998 16.0982C8.57198 16.9254 8.37298 17.9473 8.37298 19.1639H6.36687ZM7.29405 28C6.84714 28 6.45748 27.8388 6.12507 27.5163C5.79155 27.1927 5.62479 26.8147 5.62479 26.3823C5.62479 25.9498 5.79155 25.5718 6.12507 25.2482C6.45748 24.9257 6.84658 24.7645 7.29239 24.7645C7.73819 24.7645 8.1284 24.9257 8.46303 25.2482C8.79544 25.5718 8.96165 25.9498 8.96165 26.3823C8.96165 26.8147 8.79489 27.1927 8.46137 27.5163C8.13007 27.8388 7.74097 28 7.29405 28Z" fill="white"/>
</svg>
