<svg width="29" height="33" viewBox="0 0 29 33" fill="none" xmlns="http://www.w3.org/2000/svg">
<path d="M1 18.7143V2.10714C1 1.58457 1 1.32329 1.1645 1.16164C1.32899 1 1.59489 1 2.12668 1H11.3339C11.7936 1 12.0234 1 12.2307 1.08414C12.438 1.16829 12.6003 1.32771 12.927 1.64879L13.8599 2.5655C14.1867 2.88657 14.3489 3.046 14.5562 3.13014C14.7635 3.21429 14.9934 3.21429 15.453 3.21429H26.9677C27.5784 3.21429 27.8848 3.21429 27.9772 3.4025C28.0673 3.59071 27.8758 3.82543 27.4927 4.29486L21.6903 11.3761C21.4199 11.7083 21.2825 11.8766 21.2825 12.0714C21.2825 12.2663 21.4177 12.4324 21.6903 12.7667L27.4927 19.848C27.8758 20.3174 28.0696 20.5499 27.9772 20.7404C27.8871 20.9286 27.5784 20.9286 26.9655 20.9286H15.453C14.9934 20.9286 14.7635 20.9286 14.5562 20.8444C14.3489 20.7603 14.1867 20.6009 13.8599 20.2798L12.927 19.3631C12.6003 19.042 12.438 18.8826 12.2307 18.7984C12.0234 18.7143 11.7936 18.7143 11.3339 18.7143H1ZM1 18.7143V32" stroke="white" stroke-width="2" stroke-linecap="round"/>
</svg>
