<svg width="24" height="25" viewBox="0 0 24 25" fill="none" xmlns="http://www.w3.org/2000/svg">
<path d="M0.035919 8.65193C0.581961 6.97445 1.47918 5.43098 2.66851 4.12312C2.76686 4.01507 2.89528 3.93851 3.03748 3.90317C3.17968 3.86783 3.32924 3.87529 3.46716 3.92462L6.30385 4.93331C6.5058 5.005 6.72101 5.03218 6.93457 5.01296C7.14813 4.99374 7.35493 4.92858 7.54064 4.82199C7.72635 4.71541 7.88652 4.56996 8.01007 4.39571C8.13361 4.22146 8.21757 4.02259 8.25611 3.81287L8.79742 0.863271C8.82356 0.719686 8.89209 0.587083 8.99428 0.482344C9.09647 0.377605 9.2277 0.305467 9.37127 0.275115C11.1039 -0.0917051 12.8949 -0.0917051 14.6276 0.275115C14.7711 0.305467 14.9024 0.377605 15.0046 0.482344C15.1067 0.587083 15.1753 0.719686 15.2014 0.863271L15.7427 3.81287C15.7813 4.02259 15.8652 4.22146 15.9888 4.39571C16.1123 4.56996 16.2725 4.71541 16.4582 4.82199C16.6439 4.92858 16.8507 4.99374 17.0643 5.01296C17.2778 5.03218 17.493 5.005 17.695 4.93331L20.5332 3.92462C20.6712 3.87547 20.8209 3.86823 20.9631 3.90384C21.1053 3.93945 21.2336 4.01629 21.3318 4.1246C22.521 5.43202 23.4182 6.97498 23.9644 8.65193C24.0093 8.79058 24.0118 8.93938 23.9715 9.07944C23.9312 9.2195 23.85 9.3445 23.7381 9.43858L21.4383 11.3795C21.2749 11.5175 21.1437 11.6892 21.0537 11.8827C20.9637 12.0762 20.9171 12.2868 20.9171 12.4999C20.9171 12.7131 20.9637 12.9237 21.0537 13.1172C21.1437 13.3106 21.2749 13.4823 21.4383 13.6204L23.7381 15.5613C23.8497 15.6555 23.9307 15.7806 23.9707 15.9207C24.0107 16.0607 24.008 16.2094 23.9629 16.3479C23.4169 18.0254 22.5197 19.5689 21.3303 20.8767C21.232 20.9848 21.1036 21.0614 20.9614 21.0967C20.8192 21.132 20.6696 21.1246 20.5317 21.0752L17.695 20.0666C17.493 19.9949 17.2778 19.9677 17.0643 19.9869C16.8507 20.0061 16.6439 20.0713 16.4582 20.1779C16.2725 20.2845 16.1123 20.4299 15.9888 20.6042C15.8652 20.7784 15.7813 20.9773 15.7427 21.187L15.2014 24.1381C15.175 24.2814 15.1064 24.4137 15.0042 24.5181C14.902 24.6226 14.7709 24.6945 14.6276 24.7248C12.8949 25.0917 11.1039 25.0917 9.37127 24.7248C9.2277 24.6944 9.09647 24.6223 8.99428 24.5175C8.89209 24.4128 8.82356 24.2802 8.79742 24.1366L8.25611 21.187C8.21757 20.9773 8.13361 20.7784 8.01007 20.6042C7.88652 20.4299 7.72635 20.2845 7.54064 20.1779C7.35493 20.0713 7.14813 20.0061 6.93457 19.9869C6.72101 19.9677 6.5058 19.9949 6.30385 20.0666L3.46716 21.0752C3.3291 21.1244 3.17945 21.1316 3.03724 21.096C2.89503 21.0604 2.76669 20.9836 2.66851 20.8753C1.47932 19.5679 0.582109 18.0249 0.035919 16.3479C-0.00916605 16.2094 -0.0118692 16.0607 0.0281525 15.9207C0.0681741 15.7806 0.149118 15.6555 0.260725 15.5613L2.56054 13.6204C2.72392 13.4823 2.85515 13.3106 2.94516 13.1172C3.03516 12.9237 3.08177 12.7131 3.08177 12.4999C3.08177 12.2868 3.03516 12.0762 2.94516 11.8827C2.85515 11.6892 2.72392 11.5175 2.56054 11.3795L0.260725 9.43858C0.149118 9.34433 0.0681741 9.21924 0.0281525 9.0792C-0.0118692 8.93915 -0.00916605 8.79044 0.035919 8.65193ZM1.60364 8.6431L3.51745 10.2576C3.84471 10.5337 4.10762 10.8772 4.28793 11.2644C4.46825 11.6517 4.56164 12.0732 4.56164 12.4999C4.56164 12.9266 4.46825 13.3482 4.28793 13.7354C4.10762 14.1226 3.84471 14.4662 3.51745 14.7423L1.60512 16.3568C2.03698 17.5066 2.65964 18.5771 3.44498 19.521L5.80543 18.6829C6.20943 18.5395 6.63995 18.4852 7.06716 18.5238C7.49437 18.5623 7.90803 18.6927 8.27948 18.9061C8.65092 19.1194 8.97125 19.4105 9.21826 19.7591C9.46527 20.1078 9.63304 20.5057 9.70995 20.9253L10.161 23.3779C11.3782 23.5797 12.6206 23.5797 13.8378 23.3779L14.2874 20.9223C14.364 20.5025 14.5316 20.1042 14.7787 19.7553C15.0258 19.4064 15.3463 19.1152 15.7181 18.902C16.0898 18.6887 16.5038 18.5585 16.9313 18.5204C17.3588 18.4823 17.7895 18.5373 18.1934 18.6815L20.5539 19.521C21.3406 18.5756 21.963 17.5061 22.3952 16.3568L20.4814 14.7423C20.1537 14.4665 19.8904 14.123 19.7098 13.7358C19.5291 13.3485 19.4356 12.9268 19.4356 12.4999C19.4356 12.0731 19.5291 11.6514 19.7098 11.2641C19.8904 10.8768 20.1537 10.5334 20.4814 10.2576L22.3952 8.6431C21.963 7.49374 21.3406 6.42425 20.5539 5.47882L18.1934 6.31695C17.7895 6.46033 17.3591 6.51469 16.932 6.47624C16.5049 6.4378 16.0913 6.30748 15.7198 6.09432C15.3484 5.88115 15.0281 5.59024 14.781 5.24174C14.5339 4.89325 14.366 4.4955 14.2889 4.07607L13.8378 1.62199C12.6206 1.42015 11.3782 1.42015 10.161 1.62199L9.71143 4.07607C9.63452 4.49563 9.46675 4.89354 9.21974 5.24221C8.97273 5.59088 8.6524 5.88196 8.28096 6.09528C7.90951 6.3086 7.49585 6.43904 7.06864 6.47757C6.64143 6.51611 6.21091 6.4618 5.80691 6.31842L3.44498 5.47882C2.65872 6.42436 2.0354 7.49384 1.60364 8.6431ZM8.30492 12.4999C8.30492 11.525 8.69447 10.59 9.38788 9.90063C10.0813 9.21125 11.0217 8.82396 12.0024 8.82396C12.983 8.82396 13.9235 9.21125 14.6169 9.90063C15.3103 10.59 15.6998 11.525 15.6998 12.4999C15.6998 13.4749 15.3103 14.4099 14.6169 15.0992C13.9235 15.7886 12.983 16.1759 12.0024 16.1759C11.0217 16.1759 10.0813 15.7886 9.38788 15.0992C8.69447 14.4099 8.30492 13.4749 8.30492 12.4999ZM9.7839 12.4999C9.7839 13.0849 10.0176 13.6459 10.4337 14.0595C10.8497 14.4731 11.414 14.7055 12.0024 14.7055C12.5908 14.7055 13.155 14.4731 13.5711 14.0595C13.9871 13.6459 14.2209 13.0849 14.2209 12.4999C14.2209 11.915 13.9871 11.354 13.5711 10.9404C13.155 10.5267 12.5908 10.2944 12.0024 10.2944C11.414 10.2944 10.8497 10.5267 10.4337 10.9404C10.0176 11.354 9.7839 11.915 9.7839 12.4999Z" fill="white"/>
</svg>
