<svg width="64" height="97" viewBox="0 0 64 97" fill="none" xmlns="http://www.w3.org/2000/svg">
<path d="M7.04545 78V19.8182H26.7045C31.2689 19.8182 35 20.642 37.8977 22.2898C40.8144 23.9186 42.9735 26.125 44.375 28.9091C45.7765 31.6932 46.4773 34.7992 46.4773 38.2273C46.4773 41.6553 45.7765 44.7708 44.375 47.5739C42.9924 50.3769 40.8523 52.6117 37.9545 54.2784C35.0568 55.9261 31.3447 56.75 26.8182 56.75H12.7273V50.5H26.5909C29.7159 50.5 32.2254 49.9602 34.1193 48.8807C36.0133 47.8011 37.3864 46.3428 38.2386 44.5057C39.1098 42.6496 39.5455 40.5568 39.5455 38.2273C39.5455 35.8977 39.1098 33.8144 38.2386 31.9773C37.3864 30.1402 36.0038 28.7008 34.0909 27.6591C32.178 26.5985 29.6402 26.0682 26.4773 26.0682H14.0909V78H7.04545Z" fill="white"/>
<path d="M56.9545 78V19.8182H49.9091V71.75H22.8636V78H56.9545Z" fill="white"/>
<circle cx="18.5" cy="74.5" r="2.5" fill="white"/>
</svg>
